<svg id="svg" version="1.1" xmlns="http://www.w3.org/2000/svg" style="display: block;" viewBox="0 0 266 72"><path d="M0 0 C87.78 0 175.56 0 266 0 C266 23.76 266 47.52 266 72 C178.22 72 90.44 72 0 72 C0 48.24 0 24.48 0 0 Z " transform="translate(0,0)" style="fill: #010002;"/><path d="M0 0 C4.72660507 2.88627808 7.21376726 6.76714439 8.86376953 11.94873047 C9.20493091 15.12691805 9.04658076 17.13391591 7.97314453 20.15185547 C5.78572904 22.84089632 3.53069831 24.99159478 0.84423828 27.17919922 C-0.08195312 28.15566406 -0.08195312 28.15566406 -1.02685547 29.15185547 C-0.50853371 33.77249015 2.72053989 36.26781453 5.91064453 39.33935547 C6.46171875 39.88527344 7.01279297 40.43119141 7.58056641 40.99365234 C10.51023055 43.92824225 10.51023055 43.92824225 13.97314453 46.15185547 C13.97314453 46.81185547 13.97314453 47.47185547 13.97314453 48.15185547 C7.70314453 48.15185547 1.43314453 48.15185547 -5.02685547 48.15185547 C-5.02685547 44.85185547 -5.02685547 41.55185547 -5.02685547 38.15185547 C-8.32685547 38.15185547 -11.62685547 38.15185547 -15.02685547 38.15185547 C-15.02685547 41.45185547 -15.02685547 44.75185547 -15.02685547 48.15185547 C-21.29685547 48.15185547 -27.56685547 48.15185547 -34.02685547 48.15185547 C-27.27685547 40.27685547 -27.27685547 40.27685547 -23.72216797 36.74951172 C-22.97451172 36.00507812 -22.22685547 35.26064453 -21.45654297 34.49365234 C-20.69599609 33.74148437 -19.93544922 32.98931641 -19.15185547 32.21435547 C-18.36810547 31.43511719 -17.58435547 30.65587891 -16.77685547 29.85302734 C-14.86246966 27.95031462 -12.94577513 26.04999376 -11.02685547 24.15185547 C-7.93523283 25.53775527 -6.53502006 26.64369088 -4.02685547 29.15185547 C-3.69685547 22.55185547 -3.36685547 15.95185547 -3.02685547 9.15185547 C-12.92685547 9.64685547 -12.92685547 9.64685547 -23.02685547 10.15185547 C-21.37685547 11.80185547 -19.72685547 13.45185547 -18.02685547 15.15185547 C-17.98388672 17.25732422 -17.98388672 17.25732422 -19.02685547 19.15185547 C-20.66357422 20.82763672 -20.66357422 20.82763672 -22.71435547 22.46435547 C-26.17785183 25.33712983 -29.02147553 28.33496197 -31.80029297 31.86669922 C-32.40744141 32.50285156 -32.40744141 32.50285156 -33.02685547 33.15185547 C-33.68685547 33.15185547 -34.34685547 33.15185547 -35.02685547 33.15185547 C-36.87000235 9.40645248 -36.87000235 9.40645248 -31.46435547 2.65185547 C-23.49683186 -3.42952554 -9.14347074 -3.82611628 0 0 Z " transform="translate(43.02685546875,9.84814453125)" style="fill: #7A57F8;"/><path d="M0 0 C0 0.99 0 1.98 0 3 C-1.175625 2.690625 -1.175625 2.690625 -2.375 2.375 C-3.24125 2.25125 -4.1075 2.1275 -5 2 C-7.26347974 3.8419296 -7.26347974 3.8419296 -7.265625 6.625 C-7.23277522 13.72055155 -6.85950665 20.69419867 -6.125 27.75 C-6.04668945 28.53632812 -5.96837891 29.32265625 -5.88769531 30.1328125 C-5.49805771 34.52494138 -5.49805771 34.52494138 -3 38 C-5.70879335 39.35439668 -8.00933268 39.06501451 -11 39 C-14.0517291 31.49783264 -14.33608711 25.05364285 -14 17 C-14.66 17 -15.32 17 -16 17 C-16.19335938 17.59167969 -16.38671875 18.18335937 -16.5859375 18.79296875 C-17.94414719 22.9146645 -19.32050585 26.9950524 -21 31 C-22.32 31 -23.64 31 -25 31 C-26.98 26.71 -28.96 22.42 -31 18 C-31.08636719 19.09699219 -31.17273438 20.19398437 -31.26171875 21.32421875 C-31.40248072 22.77875906 -31.54447295 24.23318067 -31.6875 25.6875 C-31.74099609 26.40873047 -31.79449219 27.12996094 -31.84960938 27.87304688 C-32.27225629 31.89738057 -32.75961555 33.69551303 -35.34375 36.96875 C-38.58199504 39.44505503 -40.97824914 39.76342642 -45 40 C-44.33131686 43.11332248 -44.33131686 43.11332248 -41.9375 44.1875 C-41.298125 44.455625 -40.65875 44.72375 -40 45 C-43.17878694 46.58939347 -45.4956772 46.41576711 -49 46 C-53.37752916 41.60162547 -55.80192958 36.74639107 -58.3125 31.125 C-58.67150391 30.34125 -59.03050781 29.5575 -59.40039062 28.75 C-60.27519561 26.83709311 -61.13877427 24.91905883 -62 23 C-61.34515625 22.60167969 -60.6903125 22.20335938 -60.015625 21.79296875 C-57.79070283 20.18880917 -57.79070283 20.18880917 -57.609375 17.73828125 C-57.65578125 16.93777344 -57.7021875 16.13726563 -57.75 15.3125 C-57.80414063 14.10013672 -57.80414063 14.10013672 -57.859375 12.86328125 C-57.90578125 12.24839844 -57.9521875 11.63351563 -58 11 C-59.65 10.34 -61.3 9.68 -63 9 C-62.99214478 10.30988892 -62.99214478 10.30988892 -62.98413086 11.64624023 C-62.96712249 14.87589273 -62.95456631 18.10552245 -62.94506836 21.33520508 C-62.9400292 22.73495228 -62.93319784 24.1346942 -62.92456055 25.53442383 C-62.9124768 27.54245777 -62.90730193 29.55052957 -62.90234375 31.55859375 C-62.89448853 33.37315063 -62.89448853 33.37315063 -62.88647461 35.22436523 C-63 38 -63 38 -64 39 C-66.5 39.125 -66.5 39.125 -69 39 C-70 38 -70 38 -70.11352539 35.31616211 C-70.10828857 34.14835205 -70.10305176 32.98054199 -70.09765625 31.77734375 C-70.09443359 30.51728516 -70.09121094 29.25722656 -70.08789062 27.95898438 C-70.07953403 26.61848891 -70.07106907 25.27799412 -70.0625 23.9375 C-70.0574866 22.59310058 -70.05292342 21.2486994 -70.04882812 19.90429688 C-70.03699488 16.60282059 -70.02050971 13.30143197 -70 10 C-72.31 10.66 -74.62 11.32 -77 12 C-77.33 13.32 -77.66 14.64 -78 16 C-76.35 15.67 -74.7 15.34 -73 15 C-73.33 16.65 -73.66 18.3 -74 20 C-76.375 20.125 -76.375 20.125 -79 20 C-81 18 -81 18 -81.0625 14.625 C-80 11 -80 11 -77.4375 8.5625 C-73.45759832 6.64717231 -69.28155871 6.57869492 -64.9375 6.5 C-64.25292725 6.48138916 -63.56835449 6.46277832 -62.86303711 6.44360352 C-57.82355314 6.5062398 -54.77981286 7.68611168 -51 11 C-50.05485268 13.93108186 -50.60006996 15.85055095 -51 19 C-51.66 19.99 -52.32 20.98 -53 22 C-53.66 22 -54.32 22 -55 22 C-53.93282878 24.15532614 -52.84782529 26.29786091 -51.75 28.4375 C-51.44964844 29.04916016 -51.14929688 29.66082031 -50.83984375 30.29101562 C-49.09476289 33.79172639 -49.09476289 33.79172639 -45.9375 35.875 C-45.298125 35.91625 -44.65875 35.9575 -44 36 C-42.63875 36.2784375 -42.63875 36.2784375 -41.25 36.5625 C-40.5075 36.706875 -39.765 36.85125 -39 37 C-36.51945117 33.34900454 -35.576602 30.70833113 -35.3125 26.3125 C-35.24804688 25.27222656 -35.18359375 24.23195313 -35.1171875 23.16015625 C-34.95439144 18.77008915 -34.91254754 14.3920571 -35 10 C-37.94727535 10.10169161 -37.94727535 10.10169161 -41 11 C-42.45291273 13.46255685 -42.45291273 13.46255685 -43 16 C-41.35 15.67 -39.7 15.34 -38 15 C-38 19 -38 19 -39 20 C-41.5 20.125 -41.5 20.125 -44 20 C-45 19 -45 19 -45.4375 15.75 C-45 12 -45 12 -42.5625 9.0625 C-39.19077618 6.64382876 -36.11984793 6.31786996 -32.0390625 6.59765625 C-30 7 -30 7 -27.75 8.375 C-25.08230258 12.37654614 -23.02763447 16.64557187 -21 21 C-20.40832031 19.98679687 -19.81664062 18.97359375 -19.20703125 17.9296875 C-18.40913579 16.57795872 -17.61094279 15.22640555 -16.8125 13.875 C-16.23145508 12.87726562 -16.23145508 12.87726562 -15.63867188 11.859375 C-7.54457393 -1.78687277 -7.54457393 -1.78687277 0 0 Z " transform="translate(140,11)" style="fill: #854DEE;"/><path d="M0 0 C1.1147168 -0.04350586 1.1147168 -0.04350586 2.25195312 -0.08789062 C7.92913818 -0.15257372 11.12864131 1.09458181 15.8125 4.3125 C19.43760849 8.17148645 19.31705298 12.4618125 19.16015625 17.5234375 C18.45830679 23.15400511 16.29250036 26.79455091 12.375 30.8125 C6.97933195 33.08436023 1.59396616 32.81703424 -4.1875 32.3125 C-5.1875 31.3125 -5.1875 31.3125 -5.30102539 28.62866211 C-5.29578857 27.46085205 -5.29055176 26.29304199 -5.28515625 25.08984375 C-5.28193359 23.82978516 -5.27871094 22.56972656 -5.27539062 21.27148438 C-5.26703403 19.93098891 -5.25856907 18.59049412 -5.25 17.25 C-5.2449866 15.90560058 -5.24042342 14.5611994 -5.23632812 13.21679688 C-5.22449488 9.91532059 -5.20800971 6.61393197 -5.1875 3.3125 C-7.4975 3.9725 -9.8075 4.6325 -12.1875 5.3125 C-12.5175 6.6325 -12.8475 7.9525 -13.1875 9.3125 C-11.5375 8.9825 -9.8875 8.6525 -8.1875 8.3125 C-7.625 10.25 -7.625 10.25 -7.1875 12.3125 C-8.1875 13.3125 -8.1875 13.3125 -11.125 13.5 C-14.1875 13.3125 -14.1875 13.3125 -16.1875 11.3125 C-16.6875 9 -16.6875 9 -16.1875 6.3125 C-10.6944464 1.05827482 -7.37661487 0.09353273 0 0 Z " transform="translate(169.1875,17.6875)" style="fill: #B74BFB;"/><path d="M0 0 C3.55038072 1.50712301 5.79113387 3.57166092 8.4765625 6.31640625 C9.311875 7.16267578 10.1471875 8.00894531 11.0078125 8.88085938 C11.87148438 9.76580078 12.73515625 10.65074219 13.625 11.5625 C15.34414185 13.31597382 17.06539013 15.06738575 18.7890625 16.81640625 C19.54912598 17.59443604 20.30918945 18.37246582 21.09228516 19.17407227 C22.87557625 21.06086128 22.87557625 21.06086128 25 22 C25 22.66 25 23.32 25 24 C18.73 24 12.46 24 6 24 C6 20.7 6 17.4 6 14 C2.7 14 -0.6 14 -4 14 C-4 17.3 -4 20.6 -4 24 C-10.27 24 -16.54 24 -23 24 C-16.25 16.125 -16.25 16.125 -12.6953125 12.59765625 C-11.94765625 11.85322266 -11.2 11.10878906 -10.4296875 10.34179688 C-9.28886719 9.21354492 -9.28886719 9.21354492 -8.125 8.0625 C-7.34125 7.28326172 -6.5575 6.50402344 -5.75 5.70117188 C-3.83561419 3.79845915 -1.91891966 1.89813829 0 0 Z " transform="translate(32,34)" style="fill: #CB4BF7;"/><path d="M0 0 C0.68457275 -0.01861084 1.36914551 -0.03722168 2.07446289 -0.05639648 C7.11722276 0.00628051 10.10852495 1.25691139 13.9375 4.5 C14.3125 7.25 14.3125 7.25 13.9375 9.5 C11.9575 10.16 9.9775 10.82 7.9375 11.5 C7.6075 9.19 7.2775 6.88 6.9375 4.5 C5.2875 3.84 3.6375 3.18 1.9375 2.5 C1.94535522 3.80988892 1.94535522 3.80988892 1.95336914 5.14624023 C1.97037751 8.37589273 1.98293369 11.60552245 1.99243164 14.83520508 C1.9974708 16.23495228 2.00430216 17.6346942 2.01293945 19.03442383 C2.0250232 21.04245777 2.03019807 23.05052957 2.03515625 25.05859375 C2.04301147 26.87315063 2.04301147 26.87315063 2.05102539 28.72436523 C1.9375 31.5 1.9375 31.5 0.9375 32.5 C-1.5625 32.625 -1.5625 32.625 -4.0625 32.5 C-5.0625 31.5 -5.0625 31.5 -5.17602539 28.81616211 C-5.17078857 27.64835205 -5.16555176 26.48054199 -5.16015625 25.27734375 C-5.15693359 24.01728516 -5.15371094 22.75722656 -5.15039062 21.45898438 C-5.14203403 20.11848891 -5.13356907 18.77799412 -5.125 17.4375 C-5.1199866 16.09310058 -5.11542342 14.7486994 -5.11132812 13.40429688 C-5.09949488 10.10282059 -5.08300971 6.80143197 -5.0625 3.5 C-7.3725 4.16 -9.6825 4.82 -12.0625 5.5 C-12.3925 6.82 -12.7225 8.14 -13.0625 9.5 C-11.4125 9.17 -9.7625 8.84 -8.0625 8.5 C-8.3925 10.15 -8.7225 11.8 -9.0625 13.5 C-11.4375 13.625 -11.4375 13.625 -14.0625 13.5 C-16.0625 11.5 -16.0625 11.5 -16.125 8.125 C-15.0625 4.5 -15.0625 4.5 -12.5 2.0625 C-8.52009832 0.14717231 -4.34405871 0.07869492 0 0 Z " transform="translate(75.0625,17.5)" style="fill: #745DFF;"/><path d="M0 0 C-0.33 1.65 -0.66 3.3 -1 5 C-1.99 5.33 -2.98 5.66 -4 6 C-2.93282878 8.15532614 -1.84782529 10.29786091 -0.75 12.4375 C-0.44964844 13.04916016 -0.14929688 13.66082031 0.16015625 14.29101562 C1.90523711 17.79172639 1.90523711 17.79172639 5.0625 19.875 C5.701875 19.91625 6.34125 19.9575 7 20 C7.9075 20.185625 8.815 20.37125 9.75 20.5625 C10.4925 20.706875 11.235 20.85125 12 21 C15.64184368 16.19938787 16.13650572 10.80064983 17 5 C17.33 5 17.66 5 18 5 C18.77595563 16.77728205 18.77595563 16.77728205 15.9375 21.25 C12.54781766 23.26938523 9.91597693 23.76964842 6 24 C6.66868314 27.11332248 6.66868314 27.11332248 9.0625 28.1875 C9.701875 28.455625 10.34125 28.72375 11 29 C7.82121306 30.58939347 5.5043228 30.41576711 2 30 C-2.37752916 25.60162547 -4.80192958 20.74639107 -7.3125 15.125 C-7.67150391 14.34125 -8.03050781 13.5575 -8.40039062 12.75 C-9.27519561 10.83709311 -10.13877427 8.91905883 -11 7 C-4.18421053 0 -4.18421053 0 0 0 Z " transform="translate(89,27)" style="fill: #BF48EE;"/><path d="M0 0 C0.66 0.33 1.32 0.66 2 1 C2.3125 3.25 2.3125 3.25 2 6 C-0.99817654 8.99817654 -4.01092106 10.63231579 -8 12 C-6.24545615 15.18234105 -6.24545615 15.18234105 -4 18 C0.14276875 18.24733137 0.14276875 18.24733137 4 17 C3 20 3 20 0 22 C-3.06526351 22.54531842 -5.93408329 22.54325893 -9 22 C-11.75569447 19.81840855 -13.43588747 18.12822506 -15 15 C-15.54802111 9.30058046 -14.60961802 6.43467357 -11 2 C-6.94641576 -0.70238949 -4.81689896 -0.22937614 0 0 Z " transform="translate(206,28)" style="fill: #B546ED;"/><path d="M0 0 C2.9375 0.1875 2.9375 0.1875 6 1 C8.79082754 4.6280758 8.33114731 9.07030117 8.3125 13.4375 C8.32861328 14.18837891 8.34472656 14.93925781 8.36132812 15.71289062 C8.36538412 20.32455772 7.88889302 23.20421398 5 27 C4 28 4 28 1.4375 28.0625 C0.633125 28.041875 -0.17125 28.02125 -1 28 C-1.02886338 23.52084672 -1.04675187 19.04171709 -1.0625 14.5625 C-1.07087891 13.28310547 -1.07925781 12.00371094 -1.08789062 10.68554688 C-1.09111328 9.47060547 -1.09433594 8.25566406 -1.09765625 7.00390625 C-1.10289307 5.87799072 -1.10812988 4.7520752 -1.11352539 3.59204102 C-1 1 -1 1 0 0 Z " transform="translate(172,20)" style="fill: #010002;"/><path d="M0 0 C3.125 0.3125 3.125 0.3125 4.7578125 1.98046875 C6.79431943 5.45416772 6.99253345 8.90812452 7.5 12.8515625 C7.92081544 15.66019879 7.92081544 15.66019879 11.125 17.3125 C12.25980527 13.70256828 12.22515767 10.3282673 12.1875 6.5625 C12.17847656 5.39203125 12.16945312 4.2215625 12.16015625 3.015625 C12.14855469 2.12359375 12.13695312 1.2315625 12.125 0.3125 C13.445 0.3125 14.765 0.3125 16.125 0.3125 C16.63409295 7.87818688 16.09016802 13.72800566 12.125 20.3125 C10.125 22.3125 10.125 22.3125 6.6875 22.3125 C3.125 21.3125 3.125 21.3125 1.3125 18.75 C-0.57591975 13.28352177 -2.24065067 8.16291079 -1.875 2.3125 C-2.535 1.9825 -3.195 1.6525 -3.875 1.3125 C-2.875 0.3125 -2.875 0.3125 0 0 Z " transform="translate(213.875,27.6875)" style="fill: #B148F1;"/><path d="M0 0 C1.1147168 -0.04350586 1.1147168 -0.04350586 2.25195312 -0.08789062 C7.91270974 -0.15238654 11.17785835 1.03012526 15.8125 4.3125 C17.25 7.0625 17.25 7.0625 17.8125 9.3125 C16.1625 9.9725 14.5125 10.6325 12.8125 11.3125 C12.4825 14.2825 12.1525 17.2525 11.8125 20.3125 C11.4825 20.3125 11.1525 20.3125 10.8125 20.3125 C10.75191406 19.42046875 10.69132812 18.5284375 10.62890625 17.609375 C10.50322266 15.85367188 10.50322266 15.85367188 10.375 14.0625 C10.29378906 12.90234375 10.21257812 11.7421875 10.12890625 10.546875 C9.88002213 8.00272624 9.53135058 5.75296752 8.8125 3.3125 C6.8325 3.3125 4.8525 3.3125 2.8125 3.3125 C2.1525 5.6225 1.4925 7.9325 0.8125 10.3125 C-1.1675 10.3125 -3.1475 10.3125 -5.1875 10.3125 C-5.1875 8.0025 -5.1875 5.6925 -5.1875 3.3125 C-7.4975 3.9725 -9.8075 4.6325 -12.1875 5.3125 C-12.5175 6.6325 -12.8475 7.9525 -13.1875 9.3125 C-11.5375 8.9825 -9.8875 8.6525 -8.1875 8.3125 C-7.625 10.25 -7.625 10.25 -7.1875 12.3125 C-8.1875 13.3125 -8.1875 13.3125 -11.125 13.5 C-14.1875 13.3125 -14.1875 13.3125 -16.1875 11.3125 C-16.6875 9 -16.6875 9 -16.1875 6.3125 C-10.6944464 1.05827482 -7.37661487 0.09353273 0 0 Z " transform="translate(169.1875,17.6875)" style="fill: #725DFD;"/><path d="M0 0 C1.051875 -0.02126953 1.051875 -0.02126953 2.125 -0.04296875 C4 0.1875 4 0.1875 6 2.1875 C5.625 4.3125 5.625 4.3125 5 6.1875 C4.01 6.1875 3.02 6.1875 2 6.1875 C2 5.1975 2 4.2075 2 3.1875 C1.01 2.8575 0.02 2.5275 -1 2.1875 C0.09238225 5.79236143 1.62926267 7.95398655 4.1875 10.625 C7 13.75912409 7 13.75912409 7 17.5 C6 20.1875 6 20.1875 4 22.1875 C-3.13669065 22.87814748 -3.13669065 22.87814748 -6.5 20.1875 C-6.995 19.5275 -7.49 18.8675 -8 18.1875 C-5.69 18.5175 -3.38 18.8475 -1 19.1875 C-1.33136715 15.54246139 -2.39046627 13.53542985 -4.625 10.75 C-6.7213128 7.98915001 -7.0052617 7.47163184 -6.9375 3.8125 C-5.54819561 -0.07755229 -3.80517941 0.03497408 0 0 Z " transform="translate(249,27.8125)" style="fill: #B548F4;"/><path d="M0 0 C1.68975185 5.85780642 2.34789781 11.37098169 2.65625 17.4609375 C2.76128271 20.16518159 2.76128271 20.16518159 5 22 C2.29120665 23.35439668 -0.00933268 23.06501451 -3 23 C-6.0517291 15.49783264 -6.33608711 9.05364285 -6 1 C-4 0 -4 0 0 0 Z " transform="translate(132,27)" style="fill: #AF48F3;"/><path d="M0 0 C1.32 0 2.64 0 4 0 C4.144375 0.9075 4.28875 1.815 4.4375 2.75 C4.86409473 5.21476956 5.35074221 7.58847107 6 10 C7.2375 9.2265625 7.2375 9.2265625 8.5 8.4375 C13.04846106 6.56938206 15.23657853 6.96792535 20 8 C22 10 22 10 22.125 13.625 C22.08375 14.73875 22.0425 15.8525 22 17 C21.01 17 20.02 17 19 17 C19 17.66 19 18.32 19 19 C19.99 19.33 20.98 19.66 22 20 C22.33 22.31 22.66 24.62 23 27 C22.34 26.01 21.68 25.02 21 24 C19.17574806 21.99002106 17.32435595 20.00885865 15.4609375 18.03515625 C14 16 14 16 14 12 C15.32 12.33 16.64 12.66 18 13 C17.67 13.99 17.34 14.98 17 16 C17.99 15.67 18.98 15.34 20 15 C19.67 13.68 19.34 12.36 19 11 C15.7 11 12.4 11 9 11 C8.92572162 14.34252724 8.93453047 16.8035914 10 20 C9.01 20 8.02 20 7 20 C6.6596875 18.329375 6.6596875 18.329375 6.3125 16.625 C5.879375 15.42875 5.44625 14.2325 5 13 C2.525 12.01 2.525 12.01 0 11 C0 7.37 0 3.74 0 0 Z " transform="translate(234,18)" style="fill: #150B2E;"/><path d="M0 0 C0.02887236 3.81248426 0.04675492 7.6249407 0.0625 11.4375 C0.07087891 12.52611328 0.07925781 13.61472656 0.08789062 14.73632812 C0.09111328 15.77080078 0.09433594 16.80527344 0.09765625 17.87109375 C0.10289307 18.82943115 0.10812988 19.78776855 0.11352539 20.77514648 C0 23 0 23 -1 24 C-3.5 24.125 -3.5 24.125 -6 24 C-7 23 -7 23 -7.11352539 20.95874023 C-7.10828857 20.08419189 -7.10305176 19.20964355 -7.09765625 18.30859375 C-7.09443359 17.36435547 -7.09121094 16.42011719 -7.08789062 15.44726562 C-7.07951172 14.45404297 -7.07113281 13.46082031 -7.0625 12.4375 C-7.05798828 11.44041016 -7.05347656 10.44332031 -7.04882812 9.41601562 C-7.03700007 6.94395151 -7.02051849 4.47200482 -7 2 C-1.125 0 -1.125 0 0 0 Z " transform="translate(77,26)" style="fill: #B54BFC;"/><path d="M0 0 C0.47192654 7.13133438 0.51607627 13.14837679 -4 19 C-6.38624517 21.14883813 -8.66504391 23 -12 23 C-11.37004209 20.25604871 -10.57572993 17.95700274 -9.5 15.3125 C-8.00782378 11.48879844 -7.57704756 7.96772078 -7.40625 3.8828125 C-6.52184166 -0.21608001 -3.62552478 0 0 0 Z " transform="translate(188,27)" style="fill: #AA48F2;"/><path d="M0 0 C-2.30198847 2.30198847 -3.19038911 2.36076997 -6.3125 2.875 C-10.43996816 3.73377967 -13.1234476 4.75227954 -16 8 C-16.50135199 10.62778044 -16.50135199 10.62778044 -16 13 C-14.87465895 14.35618499 -14.87465895 14.35618499 -11.9375 14.0625 C-10.968125 14.041875 -9.99875 14.02125 -9 14 C-9 13.01 -9 12.02 -9 11 C-10.65 11 -12.3 11 -14 11 C-13.125 6.125 -13.125 6.125 -12 5 C-10.02 5 -8.04 5 -6 5 C-6 14.24 -6 23.48 -6 33 C-6.33 33 -6.66 33 -7 33 C-7.06058594 31.92878906 -7.12117187 30.85757813 -7.18359375 29.75390625 C-7.26798537 28.35675609 -7.35263406 26.95962143 -7.4375 25.5625 C-7.47681641 24.85544922 -7.51613281 24.14839844 -7.55664062 23.41992188 C-7.47624438 19.91309581 -7.47624438 19.91309581 -9 17 C-10.134375 16.855625 -11.26875 16.71125 -12.4375 16.5625 C-16 16 -16 16 -18 14 C-18.30078125 11.94140625 -18.30078125 11.94140625 -18.3125 9.5625 C-18.32925781 8.78003906 -18.34601563 7.99757813 -18.36328125 7.19140625 C-17.90586934 4.43217959 -17.25529297 3.62854853 -15 2 C-12.6953125 1.26953125 -12.6953125 1.26953125 -10.125 0.8125 C-9.28195313 0.65394531 -8.43890625 0.49539062 -7.5703125 0.33203125 C-5.01498548 0.00193581 -2.57335099 -0.05995262 0 0 Z " transform="translate(170,16)" style="fill: #130B2C;"/><path d="M0 0 C5 1 5 1 6 2 C6.37541519 5.03409323 6.40796183 7.96942639 6 11 C4 13.5625 4 13.5625 2 15 C2.66 16.98 3.32 18.96 4 21 C3.01 20.67 2.02 20.34 1 20 C1.01160156 20.71027344 1.02320312 21.42054687 1.03515625 22.15234375 C1.04869141 23.53099609 1.04869141 23.53099609 1.0625 24.9375 C1.07410156 25.85402344 1.08570312 26.77054688 1.09765625 27.71484375 C1 30 1 30 0 31 C-1.66617115 31.04063832 -3.33388095 31.042721 -5 31 C-3.68 30.34 -2.36 29.68 -1 29 C-0.67 19.43 -0.34 9.86 0 0 Z " transform="translate(77,20)" style="fill: #130B2B;"/><path d="M0 0 C0.763125 0.20625 1.52625 0.4125 2.3125 0.625 C2.3125 1.615 2.3125 2.605 2.3125 3.625 C1.52875 3.41875 0.745 3.2125 -0.0625 3 C-0.92875 2.87625 -1.795 2.7525 -2.6875 2.625 C-5.36842691 5.30592691 -5.07420257 7.01667363 -5.3125 10.75 C-5.38726562 11.84570312 -5.46203125 12.94140625 -5.5390625 14.0703125 C-5.58804688 14.91335937 -5.63703125 15.75640625 -5.6875 16.625 C-8.57984315 17.45138376 -10.57492431 17.625 -13.6875 17.625 C-14.0175 18.285 -14.3475 18.945 -14.6875 19.625 C-14.6875 12.14976568 -10.39722124 7.15021772 -5.6875 1.625 C-2.6875 -0.375 -2.6875 -0.375 0 0 Z " transform="translate(137.6875,10.375)" style="fill: #7757F8;"/><path d="M0 0 C7.75 -0.125 7.75 -0.125 10 1 C10.3125 3.25 10.3125 3.25 10 6 C7.00182346 8.99817654 3.98907894 10.63231579 0 12 C-1.53166168 7.91556885 -0.63081652 4.20544343 0 0 Z " transform="translate(198,28)" style="fill: #9146EB;"/><path d="M0 0 C2.68860931 -0.10887507 5.37273158 -0.18770594 8.0625 -0.25 C8.81466797 -0.28351562 9.56683594 -0.31703125 10.34179688 -0.3515625 C16.06179416 -0.45061007 19.31954508 0.67060423 24 4 C25.4375 6.75 25.4375 6.75 26 9 C24.35 9.66 22.7 10.32 21 11 C20.67 13.97 20.34 16.94 20 20 C19.67 20 19.34 20 19 20 C18.93941406 19.10796875 18.87882812 18.2159375 18.81640625 17.296875 C18.69072266 15.54117188 18.69072266 15.54117188 18.5625 13.75 C18.48128906 12.58984375 18.40007812 11.4296875 18.31640625 10.234375 C18.0644608 6.84154434 18.0644608 6.84154434 17 3 C11.39 2.34 5.78 1.68 0 1 C0 0.67 0 0.34 0 0 Z " transform="translate(161,18)" style="fill: #6651DE;"/><path d="M0 0 C3.5 0.125 3.5 0.125 4.5 1.125 C4.54063832 2.79117115 4.542721 4.45888095 4.5 6.125 C3.84 4.805 3.18 3.485 2.5 2.125 C1.18 2.125 -0.14 2.125 -1.5 2.125 C-1.5 5.095 -1.5 8.065 -1.5 11.125 C-2.49 11.125 -3.48 11.125 -4.5 11.125 C-4.5 14.425 -4.5 17.725 -4.5 21.125 C-4.83 21.125 -5.16 21.125 -5.5 21.125 C-5.5 18.155 -5.5 15.185 -5.5 12.125 C-6.82 12.125 -8.14 12.125 -9.5 12.125 C-9.17 13.115 -8.84 14.105 -8.5 15.125 C-8.46045766 17.45799825 -8.45598268 19.79208189 -8.5 22.125 C-8.83 22.125 -9.16 22.125 -9.5 22.125 C-10.91404314 18.32475907 -11.84892324 15.19577118 -11.5 11.125 C-10.5 10.125 -10.5 10.125 -6.9375 10.0625 C-5.803125 10.083125 -4.66875 10.10375 -3.5 10.125 C-3.58378906 9.48691406 -3.66757813 8.84882813 -3.75390625 8.19140625 C-3.90666016 6.95197266 -3.90666016 6.95197266 -4.0625 5.6875 C-4.16691406 4.86378906 -4.27132812 4.04007813 -4.37890625 3.19140625 C-4.41886719 2.50949219 -4.45882812 1.82757812 -4.5 1.125 C-3.5 0.125 -3.5 0.125 0 0 Z " transform="translate(235.5,15.875)" style="fill: #10092A;"/><path d="M0 0 C0.763125 0.20625 1.52625 0.4125 2.3125 0.625 C2.45965692 8.0155476 2.02026992 15.26924835 1.3125 22.625 C0.9825 22.625 0.6525 22.625 0.3125 22.625 C-0.0175 18.665 -0.3475 14.705 -0.6875 10.625 C-1.0175 10.955 -1.3475 11.285 -1.6875 11.625 C-3.35367115 11.66563832 -5.02138095 11.667721 -6.6875 11.625 C-5.7284375 11.2228125 -5.7284375 11.2228125 -4.75 10.8125 C-2.35618314 9.73832248 -2.35618314 9.73832248 -1.6875 6.625 C-3.3375 6.625 -4.9875 6.625 -6.6875 6.625 C-6.375 4.25 -6.375 4.25 -5.6875 1.625 C-2.6875 -0.375 -2.6875 -0.375 0 0 Z " transform="translate(103.6875,20.375)" style="fill: #1D113C;"/><path d="M0 0 C2.9375 0.1875 2.9375 0.1875 6 1 C8.72640172 4.22211113 8.15537649 7.96021122 8 12 C7.7525 11.4225 7.505 10.845 7.25 10.25 C5.83316683 7.6997003 4.12372463 5.98214299 2 4 C0.76597138 8.77092956 0.88734888 13.42469446 0.9375 18.3125 C0.94201172 19.14845703 0.94652344 19.98441406 0.95117188 20.84570312 C0.96289452 22.89716649 0.98082797 24.94859273 1 27 C2.32 26.67 3.64 26.34 5 26 C4.67 26.66 4.34 27.32 4 28 C2.35 28 0.7 28 -1 28 C-1.02886338 23.52084672 -1.04675187 19.04171709 -1.0625 14.5625 C-1.07087891 13.28310547 -1.07925781 12.00371094 -1.08789062 10.68554688 C-1.09111328 9.47060547 -1.09433594 8.25566406 -1.09765625 7.00390625 C-1.10289307 5.87799072 -1.10812988 4.7520752 -1.11352539 3.59204102 C-1 1 -1 1 0 0 Z " transform="translate(172,20)" style="fill: #120A29;"/><path d="M0 0 C2.54283234 -0.10871967 5.08095088 -0.18762401 7.625 -0.25 C8.33785156 -0.28351562 9.05070312 -0.31703125 9.78515625 -0.3515625 C14.96395395 -0.44658631 17.93787512 0.49641729 22 4 C22.375 6.75 22.375 6.75 22 9 C20.02 9.66 18.04 10.32 16 11 C15.67 8.69 15.34 6.38 15 4 C10.01770224 2.08373163 5.27315333 1.4452885 0 1 C0 0.67 0 0.34 0 0 Z " transform="translate(67,18)" style="fill: #7559FA;"/><path d="M0 0 C0 8.91 0 17.82 0 27 C-0.33 27 -0.66 27 -1 27 C-1 21.06 -1 15.12 -1 9 C-1.66 9 -2.32 9 -3 9 C-3 7.68 -3 6.36 -3 5 C-4.65 5.33 -6.3 5.66 -8 6 C-6.92307692 0 -6.92307692 0 0 0 Z " transform="translate(70,21)" style="fill: #120A28;"/><path d="M0 0 C1.01964844 0.06703125 2.03929688 0.1340625 3.08984375 0.203125 C6.36117745 0.80494723 8.37844949 1.81018532 11.0625 3.75 C12.7040049 7.0330098 11.58138624 10.17545033 11.0625 13.75 C10.7325 13.75 10.4025 13.75 10.0625 13.75 C10.000625 12.656875 9.93875 11.56375 9.875 10.4375 C9.45186547 6.72233399 9.45186547 6.72233399 7.03125 5.0625 C3.20969454 3.37297022 -0.11510739 3.19183087 -4.25 3.0625 C-4.99056641 3.02833984 -5.73113281 2.99417969 -6.49414062 2.95898438 C-8.30808164 2.87706446 -10.12276353 2.81184178 -11.9375 2.75 C-8.3846484 -0.8028516 -4.82512204 -0.36507859 0 0 Z " transform="translate(78.9375,15.25)" style="fill: #161037;"/><path d="M0 0 C3.66582607 -0.20521049 7.3301594 -0.32825201 11 -0.4375 C12.02996094 -0.49615234 13.05992188 -0.55480469 14.12109375 -0.61523438 C19.76162681 -0.74097874 23.23932795 -0.43090879 27.62109375 3.3125 C31.00310305 6.66995346 32.78311049 9.37581988 34 14 C33.93124709 16.78940396 33.5322129 19.2421695 33 22 C32.67 22 32.34 22 32 22 C32.03222656 21.31035156 32.06445312 20.62070312 32.09765625 19.91015625 C32.02968864 14.40478013 31.24321616 10.2768073 27.8125 5.875 C20.58624807 -0.77078251 9.21491381 0.74945792 0 1 C0 0.67 0 0.34 0 0 Z " transform="translate(19,8)" style="fill: #0F0D2C;"/><path d="M0 0 C3.63 0 7.26 0 11 0 C11 1.98 11 3.96 11 6 C7.37 6 3.74 6 0 6 C0 4.02 0 2.04 0 0 Z " transform="translate(140,36)" style="fill: #A041DF;"/><path d="M0 0 C2 3 2 3 1.625 5.1875 C1.315625 6.0846875 1.315625 6.0846875 1 7 C0.71125 6.360625 0.4225 5.72125 0.125 5.0625 C-0.82823451 2.84793921 -0.82823451 2.84793921 -3 2 C-7.50278685 1.46037328 -10.9672799 1.44060994 -15 3.625 C-17.37473207 6.44499433 -17.75210718 8.36423871 -18 12 C-18.33 12 -18.66 12 -19 12 C-19 8.7 -19 5.4 -19 2 C-11.94666826 -1.18091432 -7.63741976 -2.88204519 0 0 Z " transform="translate(113,17)" style="fill: #0D0A25;"/><path d="M0 0 C2.31 0 4.62 0 7 0 C7 1.98 7 3.96 7 6 C4.69 6.66 2.38 7.32 0 8 C-0.66 11.96 -1.32 15.92 -2 20 C-2.33 20 -2.66 20 -3 20 C-3.08097324 17.72975032 -3.13917704 15.45867925 -3.1875 13.1875 C-3.22230469 11.92292969 -3.25710937 10.65835937 -3.29296875 9.35546875 C-3 6 -3 6 -1.48828125 4.05078125 C-0.99714844 3.70402344 -0.50601563 3.35726563 0 3 C2.475 3.99 2.475 3.99 5 5 C4.33131686 1.88667752 4.33131686 1.88667752 1.9375 0.8125 C1.298125 0.544375 0.65875 0.27625 0 0 Z " transform="translate(135,9)" style="fill: #120C2A;"/><path d="M0 0 C0 0.33 0 0.66 0 1 C-2.31 1.66 -4.62 2.32 -7 3 C-7.33 4.32 -7.66 5.64 -8 7 C-6.35 6.67 -4.7 6.34 -3 6 C-3.33 7.65 -3.66 9.3 -4 11 C-6.375 11.125 -6.375 11.125 -9 11 C-9.66 10.34 -10.32 9.68 -11 9 C-10.9375 5.5625 -10.9375 5.5625 -10 2 C-6.55207714 -1.06482032 -4.3491741 -1.36688329 0 0 Z " transform="translate(70,20)" style="fill: #824EF2;"/><path d="M0 0 C1.32 0.66 2.64 1.32 4 2 C3.030625 2.2475 2.06125 2.495 1.0625 2.75 C0.051875 3.1625 -0.95875 3.575 -2 4 C-2.96877057 6.03243548 -2.96877057 6.03243548 -3 8 C-1.35 7.67 0.3 7.34 2 7 C2.5625 8.9375 2.5625 8.9375 3 11 C2 12 2 12 -0.9375 12.1875 C-4 12 -4 12 -6 10 C-6.5 7.6875 -6.5 7.6875 -6 5 C-4.15028917 3.02123958 -2.20706386 1.6093174 0 0 Z " transform="translate(159,19)" style="fill: #764FE0;"/><path d="M0 0 C6.93 0 13.86 0 21 0 C21 6.93 21 13.86 21 21 C19.68 19.68 18.36 18.36 17 17 C17.66 16.67 18.32 16.34 19 16 C19.31341426 13.44242141 19.51228239 11.00356179 19.625 8.4375 C19.810625 4.7559375 19.810625 4.7559375 20 1 C10.595 1.495 10.595 1.495 1 2 C0.67 1.34 0.34 0.68 0 0 Z " transform="translate(19,19)" style="fill: #382572;"/><path d="M0 0 C5.94 0 11.88 0 18 0 C17.67 0.66 17.34 1.32 17 2 C13.37 2 9.74 2 6 2 C5.8453125 3.6396875 5.8453125 3.6396875 5.6875 5.3125 C5.02692273 8.85559629 4.7972908 9.93243723 2 12 C1.01 11.67 0.02 11.34 -1 11 C0.32 10.01 1.64 9.02 3 8 C2.34099246 4.92463146 1.46132217 2.92264434 0 0 Z " transform="translate(21,20)" style="fill: #150C2E;"/><path d="M0 0 C0 0.99 0 1.98 0 3 C-0.78375 2.79375 -1.5675 2.5875 -2.375 2.375 C-3.24125 2.25125 -4.1075 2.1275 -5 2 C-7.5654594 4.5654594 -7.54046087 6.47686668 -8 10 C-9.98 10.33 -11.96 10.66 -14 11 C-12.50948318 6.39294801 -10.21457741 3.53603516 -7 0 C-4.3333581 -1.33332095 -2.83319697 -0.67102033 0 0 Z " transform="translate(140,11)" style="fill: #5460EC;"/><path d="M0 0 C0.66 0.33 1.32 0.66 2 1 C1.34 1.66 0.68 2.32 0 3 C-0.6425235 5.06874034 -0.6425235 5.06874034 -1 7 C0.65 6.67 2.3 6.34 4 6 C4 10 4 10 3 11 C0.5 11.125 0.5 11.125 -2 11 C-3 10 -3 10 -3.25 6.625 C-3 3 -3 3 -1.5 1.0625 C-1.005 0.711875 -0.51 0.36125 0 0 Z " transform="translate(98,20)" style="fill: #7F51F3;"/><path d="M0 0 C1.32 0 2.64 0 4 0 C4 3.3 4 6.6 4 10 C2.68 10.33 1.36 10.66 0 11 C0 7.37 0 3.74 0 0 Z " transform="translate(234,18)" style="fill: #6B56EC;"/><path d="M0 0 C3.5 0.125 3.5 0.125 4.5 1.125 C4.54063832 2.79117115 4.542721 4.45888095 4.5 6.125 C3.84 4.805 3.18 3.485 2.5 2.125 C1.18 2.455 -0.14 2.785 -1.5 3.125 C-1.83 4.445 -2.16 5.765 -2.5 7.125 C-3.16 7.125 -3.82 7.125 -4.5 7.125 C-4.54254356 5.12545254 -4.54080783 3.12458364 -4.5 1.125 C-3.5 0.125 -3.5 0.125 0 0 Z " transform="translate(235.5,15.875)" style="fill: #0B021E;"/><path d="M0 0 C1.19882813 0.15275391 1.19882813 0.15275391 2.421875 0.30859375 C3.02515625 0.39238281 3.6284375 0.47617188 4.25 0.5625 C3.92 1.2225 3.59 1.8825 3.25 2.5625 C-1.37 2.5625 -5.99 2.5625 -10.75 2.5625 C-7.44376175 -0.74373825 -4.47451938 -0.5922158 0 0 Z " transform="translate(77.75,15.4375)" style="fill: #080825;"/><path d="M0 0 C0.99 0.33 1.98 0.66 3 1 C3.75 3 3.75 3 4 5 C3 6 3 6 1.14233398 6.11352539 C0.35157471 6.10828857 -0.43918457 6.10305176 -1.25390625 6.09765625 C-2.10791016 6.09443359 -2.96191406 6.09121094 -3.84179688 6.08789062 C-4.73962891 6.07951172 -5.63746094 6.07113281 -6.5625 6.0625 C-7.46419922 6.05798828 -8.36589844 6.05347656 -9.29492188 6.04882812 C-11.53001314 6.03700225 -13.76497437 6.0205222 -16 6 C-16 5.67 -16 5.34 -16 5 C-10.06 5 -4.12 5 2 5 C2 4.34 2 3.68 2 3 C1.01 2.67 0.02 2.34 -1 2 C-0.67 1.34 -0.34 0.68 0 0 Z " transform="translate(55,53)" style="fill: #321248;"/><path d="M0 0 C0.99 0.33 1.98 0.66 3 1 C3 2.65 3 4.3 3 6 C1.35 6.66 -0.3 7.32 -2 8 C-2.125 5.125 -2.125 5.125 -2 2 C-1.34 1.34 -0.68 0.68 0 0 Z " transform="translate(200,30)" style="fill: #150D30;"/><path d="M0 0 C0.69222656 0.08765625 1.38445312 0.1753125 2.09765625 0.265625 C3.9375 0.75 3.9375 0.75 5.9375 2.75 C6.0625 6.375 6.0625 6.375 5.9375 9.75 C5.6075 9.75 5.2775 9.75 4.9375 9.75 C4.2775 7.77 3.6175 5.79 2.9375 3.75 C-0.3625 3.09 -3.6625 2.43 -7.0625 1.75 C-3.88217735 -0.3702151 -3.51682601 -0.4995865 0 0 Z " transform="translate(250.0625,25.25)" style="fill: #090725;"/><path d="M0 0 C0.99 0 1.98 0 3 0 C3 2.64 3 5.28 3 8 C1.68 8.33 0.36 8.66 -1 9 C-0.67 6.03 -0.34 3.06 0 0 Z " transform="translate(79,24)" style="fill: #000002;"/><path d="M0 0 C2.62527189 -0.05382106 5.24944713 -0.09358313 7.875 -0.125 C8.62136719 -0.14175781 9.36773437 -0.15851562 10.13671875 -0.17578125 C12.09194461 -0.1933959 14.04742021 -0.10320189 16 0 C16.66 0.66 17.32 1.32 18 2 C14.10939581 3.4049404 10.76907638 2.69513239 6.75 2.0625 C5.48671875 1.86785156 4.2234375 1.67320313 2.921875 1.47265625 C1.95765625 1.31667969 0.9934375 1.16070313 0 1 C0 0.67 0 0.34 0 0 Z " transform="translate(67,18)" style="fill: #5458DE;"/><path d="M0 0 C1.32 0 2.64 0 4 0 C4 3.63 4 7.26 4 11 C1 9 1 9 0.48828125 6.8359375 C0.43027344 6.02382813 0.37226563 5.21171875 0.3125 4.375 C0.24675781 3.55773437 0.18101562 2.74046875 0.11328125 1.8984375 C0.07589844 1.27195312 0.03851563 0.64546875 0 0 Z " transform="translate(226,28)" style="fill: #8240D8;"/><path d="M0 0 C0.33 0 0.66 0 1 0 C1 4.29 1 8.58 1 13 C0.01 13.33 -0.98 13.66 -2 14 C-1.85866501 12.22880197 -1.71176792 10.45804713 -1.5625 8.6875 C-1.48128906 7.70136719 -1.40007812 6.71523438 -1.31640625 5.69921875 C-1 3 -1 3 0 0 Z " transform="translate(106,32)" style="fill: #B447F3;"/><path d="M0 0 C2.375 -0.125 2.375 -0.125 5 0 C5.66 0.66 6.32 1.32 7 2 C6.625 4.125 6.625 4.125 6 6 C5.01 6 4.02 6 3 6 C3 5.01 3 4.02 3 3 C2.01 2.67 1.02 2.34 0 2 C0 1.34 0 0.68 0 0 Z " transform="translate(248,28)" style="fill: #7D41D7;"/><path d="M0 0 C2.8290723 2.8290723 3.37611108 3.38144425 4 7 C3.01 6.67 2.02 6.34 1 6 C1 7.98 1 9.96 1 12 C0.67 12 0.34 12 0 12 C0 8.04 0 4.08 0 0 Z " transform="translate(108,28)" style="fill: #190D35;"/><path d="M0 0 C0 1.32 0 2.64 0 4 C-1.98 4.33 -3.96 4.66 -6 5 C-5.625 3.0625 -5.625 3.0625 -5 1 C-3 0 -3 0 0 0 Z " transform="translate(104,20)" style="fill: #0E0924;"/><path d="M0 0 C0.99 0.66 1.98 1.32 3 2 C2.2884375 2.556875 2.2884375 2.556875 1.5625 3.125 C-0.52205802 5.62646962 -0.64621491 7.81593418 -1 11 C-1.33 11 -1.66 11 -2 11 C-2 7.7 -2 4.4 -2 1 C-1.34 0.67 -0.68 0.34 0 0 Z " transform="translate(96,18)" style="fill: #19123E;"/><path d="M0 0 C0.33 1.32 0.66 2.64 1 4 C-1.3125 4.625 -1.3125 4.625 -4 5 C-4.99 4.34 -5.98 3.68 -7 3 C-7 2.34 -7 1.68 -7 1 C-4.61435923 1.57584432 -2.33317216 2.22227595 0 3 C0 2.01 0 1.02 0 0 Z " transform="translate(248,43)" style="fill: #190F2E;"/><path d="M0 0 C2.6875 0.3125 2.6875 0.3125 5 1 C5 1.99 5 2.98 5 4 C4.236875 3.835 3.47375 3.67 2.6875 3.5 C-0.03596236 2.90854604 -0.03596236 2.90854604 -3 3 C-1.8125 1.4375 -1.8125 1.4375 0 0 Z " transform="translate(135,10)" style="fill: #355CCD;"/><path d="M0 0 C2.0625 0.4375 2.0625 0.4375 4 1 C4.33 2.32 4.66 3.64 5 5 C3.33333333 5 1.66666667 5 0 5 C-0.5625 3.0625 -0.5625 3.0625 -1 1 C-0.67 0.67 -0.34 0.34 0 0 Z " transform="translate(172,20)" style="fill: #080522;"/><path d="M0 0 C0.66 0.33 1.32 0.66 2 1 C-0.97 4.96 -0.97 4.96 -4 9 C-5 6 -5 6 -3.6875 3.375 C-2 1 -2 1 0 0 Z " transform="translate(131,11)" style="fill: #110B2D;"/><path d="M0 0 C0 0.33 0 0.66 0 1 C-1.670625 1.4021875 -1.670625 1.4021875 -3.375 1.8125 C-7.21840951 2.65809019 -7.21840951 2.65809019 -9 6 C-9.33 4.68 -9.66 3.36 -10 2 C-6.27511755 -0.66063032 -4.42132508 -1.38955931 0 0 Z " transform="translate(70,20)" style="fill: #5146BD;"/></svg>