<svg id="svg" version="1.1" xmlns="http://www.w3.org/2000/svg" viewBox="0 0 398 127" style="display: block;"><path d="M0 0 C131.34 0 262.68 0 398 0 C398 41.91 398 83.82 398 127 C266.66 127 135.32 127 0 127 C0 85.09 0 43.18 0 0 Z " transform="translate(0,0)" style="fill: #000001;"/><path d="M0 0 C6.49277355 4.07460166 11.29159772 9.56108572 13.60644531 16.93505859 C14.82290809 23.0069195 14.444659 28.68723 11.51025391 34.23925781 C9.77704529 36.31750333 7.99070643 37.9419744 5.88525391 39.63769531 C4.53661944 40.87117124 3.20252638 42.12078134 1.88525391 43.38769531 C1.28712891 43.91878906 0.68900391 44.44988281 0.07275391 44.99707031 C-1.29688985 46.55276699 -1.29688985 46.55276699 -1.11865234 48.50878906 C0.34527598 51.6132285 2.49309134 53.56306129 4.94775391 55.95019531 C5.44291504 56.43439941 5.93807617 56.91860352 6.44824219 57.41748047 C9.91458871 60.78078858 13.49313208 63.99646116 17.15869141 67.14160156 C19.54149321 69.20633706 21.75672762 71.30961969 23.88525391 73.63769531 C23.88525391 74.29769531 23.88525391 74.95769531 23.88525391 75.63769531 C13.98525391 75.63769531 4.08525391 75.63769531 -6.11474609 75.63769531 C-6.11474609 70.35769531 -6.11474609 65.07769531 -6.11474609 59.63769531 C-11.39474609 59.63769531 -16.67474609 59.63769531 -22.11474609 59.63769531 C-22.11474609 64.91769531 -22.11474609 70.19769531 -22.11474609 75.63769531 C-32.01474609 75.63769531 -41.91474609 75.63769531 -52.11474609 75.63769531 C-52.11474609 74.97769531 -52.11474609 74.31769531 -52.11474609 73.63769531 C-50.88330078 72.43847656 -50.88330078 72.43847656 -49.03662109 70.95019531 C-44.82693899 67.37474726 -40.9803506 63.52710602 -37.13037109 59.57519531 C-36.19010071 58.61577026 -36.19010071 58.61577026 -35.23083496 57.63696289 C-32.60202591 54.95451823 -29.97536271 52.27040219 -27.3671875 49.56787109 C-25.44534407 47.57977352 -23.50824992 45.6076833 -21.56787109 43.63769531 C-20.97927307 43.02015381 -20.39067505 42.4026123 -19.78424072 41.76635742 C-18.10400391 40.07519531 -18.10400391 40.07519531 -15.11474609 37.63769531 C-11.11474609 38.63769531 -11.11474609 38.63769531 -5.11474609 44.63769531 C-4.78474609 35.06769531 -4.45474609 25.49769531 -4.11474609 15.63769531 C-13.68474609 15.96769531 -23.25474609 16.29769531 -33.11474609 16.63769531 C-29.62730466 21.51497002 -29.62730466 21.51497002 -26.11474609 23.63769531 C-26.55952926 28.47267326 -28.52761079 30.54255928 -31.91943359 33.90332031 C-32.63910812 34.62162018 -32.63910812 34.62162018 -33.37332153 35.35443115 C-34.38576266 36.36084964 -35.4030411 37.36242245 -36.42480469 38.359375 C-37.9881038 39.88609145 -39.53473051 41.42828226 -41.07958984 42.97363281 C-48.67147345 50.48993777 -48.67147345 50.48993777 -52.11474609 51.63769531 C-54.80959443 14.84126879 -54.80959443 14.84126879 -48.4765625 5.59326172 C-37.78653638 -5.6737914 -13.64707098 -5.96885531 0 0 Z " transform="translate(71.11474609375,26.3623046875)" style="fill: #7658F7;"/><path d="M0 0 C1.546875 0.185625 1.546875 0.185625 3.125 0.375 C3.125 1.695 3.125 3.015 3.125 4.375 C2.465 4.375 1.805 4.375 1.125 4.375 C1.125 3.715 1.125 3.055 1.125 2.375 C-2.12483135 3.46284968 -2.12483135 3.46284968 -4.875 5.375 C-5.0073043 8.11646818 -5.06467904 10.81989976 -5.0625 13.5625 C-5.0634668 14.80930542 -5.0634668 14.80930542 -5.06445312 16.08129883 C-4.98180362 26.22746494 -3.95232957 36.29365931 -2.875 46.375 C-1.555 46.375 -0.235 46.375 1.125 46.375 C1.125 47.035 1.125 47.695 1.125 48.375 C-2.27231629 50.46565618 -4.91769405 50.79598999 -8.875 50.375 C-11.25744392 48.6743798 -11.81920981 47.61370595 -12.4909668 44.73950195 C-12.60093994 43.70784912 -12.71091309 42.67619629 -12.82421875 41.61328125 C-13.01274414 39.93588867 -13.01274414 39.93588867 -13.20507812 38.22460938 C-13.38200195 36.47374023 -13.38200195 36.47374023 -13.5625 34.6875 C-13.69205078 33.50865234 -13.82160156 32.32980469 -13.95507812 31.11523438 C-14.27341109 28.20307728 -14.57572902 25.2891777 -14.875 22.375 C-17.515 27.985 -20.155 33.595 -22.875 39.375 C-24.195 39.375 -25.515 39.375 -26.875 39.375 C-29.515 34.095 -32.155 28.815 -34.875 23.375 C-36.09576292 28.25805169 -36.19455572 32.94827885 -36.3984375 37.96484375 C-37.00632619 42.31473575 -38.61077019 44.73403696 -41.23828125 48.14453125 C-43.48858773 49.83628911 -45.27724291 49.88163915 -48.0625 50.0625 C-48.96355469 50.12824219 -49.86460937 50.19398437 -50.79296875 50.26171875 C-51.82357422 50.31779297 -51.82357422 50.31779297 -52.875 50.375 C-50.73110983 53.65238304 -50.73110983 53.65238304 -47.1875 55.125 C-46.424375 55.2075 -45.66125 55.29 -44.875 55.375 C-45.875 57.375 -45.875 57.375 -48.875 58.375 C-56.00483763 59.06498429 -56.00483763 59.06498429 -59.30859375 56.4453125 C-62.71145134 52.76432419 -64.81563256 48.31434777 -67.0625 43.875 C-67.71895508 42.61236328 -67.71895508 42.61236328 -68.38867188 41.32421875 C-70.40972614 37.40553338 -72.3541558 33.52121211 -73.875 29.375 C-72.9159375 28.941875 -72.9159375 28.941875 -71.9375 28.5 C-69.72293921 27.54676549 -69.72293921 27.54676549 -68.875 25.375 C-68.80407158 23.1677077 -68.79084975 20.95832548 -68.8125 18.75 C-68.82152344 17.56148437 -68.83054688 16.37296875 -68.83984375 15.1484375 C-68.85144531 14.23320313 -68.86304688 13.31796875 -68.875 12.375 C-70.525 12.375 -72.175 12.375 -73.875 12.375 C-73.89481934 13.45507324 -73.91463867 14.53514648 -73.93505859 15.64794922 C-74.01101623 19.64753913 -74.09974816 23.64676052 -74.19238281 27.64599609 C-74.23071341 29.37834407 -74.26555906 31.11077274 -74.296875 32.84326172 C-74.34243765 35.33069749 -74.40044503 37.81757566 -74.4609375 40.3046875 C-74.47826431 41.47038773 -74.47826431 41.47038773 -74.49594116 42.65963745 C-74.64725659 48.14725659 -74.64725659 48.14725659 -76.875 50.375 C-79.375 50.625 -79.375 50.625 -81.875 50.375 C-83.875 48.375 -83.875 48.375 -84.10205078 44.84326172 C-84.10173363 43.33036669 -84.09040633 41.81744912 -84.0703125 40.3046875 C-84.0674826 39.50845978 -84.06465271 38.71223206 -84.06173706 37.89187622 C-84.0505264 35.34443237 -84.02542062 32.79733789 -84 30.25 C-83.98997133 28.52474465 -83.98084528 26.79948381 -83.97265625 25.07421875 C-83.95058422 20.84101086 -83.91604867 16.6080647 -83.875 12.375 C-85.793125 12.808125 -85.793125 12.808125 -87.75 13.25 C-88.46929687 13.41242187 -89.18859375 13.57484375 -89.9296875 13.7421875 C-92.08219964 14.27974428 -92.08219964 14.27974428 -93.875 16.375 C-93.875 17.365 -93.875 18.355 -93.875 19.375 C-91.895 19.375 -89.915 19.375 -87.875 19.375 C-87.75 21.75 -87.75 21.75 -87.875 24.375 C-89.875 26.375 -89.875 26.375 -92.3125 26.75 C-94.875 26.375 -94.875 26.375 -96.75 24.8125 C-98.39566017 21.24690297 -97.94216959 19.11009355 -96.875 15.375 C-92.72377605 10.98656325 -87.7644867 9.34127542 -81.81640625 9.07421875 C-80.35683715 9.05976757 -78.89712638 9.05604719 -77.4375 9.0625 C-76.34985352 9.03833008 -76.34985352 9.03833008 -75.24023438 9.01367188 C-70.06073118 9.00901823 -66.48024664 9.9821348 -61.875 12.375 C-59.38459058 14.86540942 -59.55108986 15.80654357 -59.5 19.25 C-59.56202837 22.82696934 -59.62333839 24.02267375 -61.75 27 C-63.875 28.375 -63.875 28.375 -65.875 28.375 C-65.40449219 29.09945312 -64.93398437 29.82390625 -64.44921875 30.5703125 C-58.26515817 40.17289104 -58.26515817 40.17289104 -55.875 45.375 C-54.555 45.375 -53.235 45.375 -51.875 45.375 C-51.545 45.705 -51.215 46.035 -50.875 46.375 C-48.54202567 46.41592937 -46.20794775 46.41741723 -43.875 46.375 C-41.68652711 42.76126115 -41.22680605 39.05741759 -40.75 34.9375 C-40.62262451 33.88755859 -40.62262451 33.88755859 -40.49267578 32.81640625 C-39.76280475 26.33127453 -39.67397772 19.89705632 -39.875 13.375 C-42.82918439 12.45536051 -43.58314686 12.25282892 -46.5625 13.5 C-49.09488288 15.19475241 -49.09488288 15.19475241 -49.6875 18.0625 C-49.7803125 19.2071875 -49.7803125 19.2071875 -49.875 20.375 C-47.895 20.045 -45.915 19.715 -43.875 19.375 C-43.25 21.75 -43.25 21.75 -42.875 24.375 C-43.535 25.035 -44.195 25.695 -44.875 26.375 C-48.4375 26.125 -48.4375 26.125 -51.875 25.375 C-53.44435594 22.23628812 -53.22701103 19.83644178 -52.875 16.375 C-49.46453383 11.99011492 -46.22040204 9.82675137 -40.734375 9.0859375 C-36.79045705 8.83781021 -34.55054559 8.93510985 -31.1875 11.125 C-22.875 22.80743243 -22.875 22.80743243 -22.875 28.375 C-22.215 28.375 -21.555 28.375 -20.875 28.375 C-20.51148438 26.87646484 -20.51148438 26.87646484 -20.140625 25.34765625 C-18.92198275 21.09844313 -16.92197824 17.56525541 -14.625 13.8125 C-14.25503906 13.17892578 -13.88507813 12.54535156 -13.50390625 11.89257812 C-6.71913728 0.65023909 -6.71913728 0.65023909 0 0 Z " transform="translate(206.875,34.625)" style="fill: #994FF6;"/><path d="M0 0 C3.49403336 0.43416649 4.97470193 1.66160283 7.29296875 4.25390625 C7.9154248 4.93622314 8.53788086 5.61854004 9.17919922 6.3215332 C9.84193848 7.06105225 10.50467773 7.80057129 11.1875 8.5625 C17.68823154 15.67025951 24.45380465 22.35224306 31.59057617 28.82055664 C32.26967041 29.44309326 32.94876465 30.06562988 33.6484375 30.70703125 C34.54828369 31.51877808 34.54828369 31.51877808 35.46630859 32.34692383 C37 34 37 34 39 38 C29.1 38 19.2 38 9 38 C9 32.72 9 27.44 9 22 C3.72 22 -1.56 22 -7 22 C-7 27.28 -7 32.56 -7 38 C-16.9 38 -26.8 38 -37 38 C-37 37.34 -37 36.68 -37 36 C-35.76855469 34.80078125 -35.76855469 34.80078125 -33.921875 33.3125 C-29.7121929 29.73705194 -25.8656045 25.88941071 -22.015625 21.9375 C-21.38877808 21.2978833 -20.76193115 20.6582666 -20.11608887 19.99926758 C-17.48727981 17.31682292 -14.86061661 14.63270687 -12.25244141 11.93017578 C-10.33059797 9.9420782 -8.39350383 7.96998799 -6.453125 6 C-5.86452698 5.3824585 -5.27592896 4.76491699 -4.66949463 4.12866211 C-2.98925781 2.4375 -2.98925781 2.4375 0 0 Z " transform="translate(56,64)" style="fill: #D04BF8;"/><path d="M0 0 C3.80961113 2.39549584 5.52856462 5.01928761 6.92578125 9.2109375 C7.56054424 18.24410308 7.18627093 24.42888597 2.05078125 31.9609375 C-1.97397302 36.22244202 -6.00401231 37.97922381 -11.765625 38.4140625 C-13.18681641 38.43726562 -13.18681641 38.43726562 -14.63671875 38.4609375 C-15.58675781 38.48671875 -16.53679687 38.5125 -17.515625 38.5390625 C-20.07421875 38.2109375 -20.07421875 38.2109375 -21.71582031 37.18725586 C-23.83597384 34.10266872 -23.44165528 30.86922879 -23.3671875 27.26171875 C-23.36294266 26.48910202 -23.35869781 25.71648529 -23.35432434 24.92045593 C-23.33754058 22.45442758 -23.29989022 19.98921854 -23.26171875 17.5234375 C-23.24667146 15.85092327 -23.23298313 14.17839622 -23.22070312 12.50585938 C-23.18763821 8.40723672 -23.13585903 4.30922599 -23.07421875 0.2109375 C-26.04421875 0.8709375 -29.01421875 1.5309375 -32.07421875 2.2109375 C-32.40421875 4.1909375 -32.73421875 6.1709375 -33.07421875 8.2109375 C-31.09421875 7.8809375 -29.11421875 7.5509375 -27.07421875 7.2109375 C-26.44921875 9.5859375 -26.44921875 9.5859375 -26.07421875 12.2109375 C-28.07421875 14.2109375 -28.07421875 14.2109375 -31.07421875 14.5234375 C-32.06421875 14.4203125 -33.05421875 14.3171875 -34.07421875 14.2109375 C-36.57453529 10.46046268 -36.61025429 8.65237484 -36.07421875 4.2109375 C-28.61400265 -5.96208445 -10.45650874 -4.95585792 0 0 Z " transform="translate(264.07421875,46.7890625)" style="fill: #9D4FF6;"/><path d="M0 0 C1.546875 0.185625 1.546875 0.185625 3.125 0.375 C3.125 1.695 3.125 3.015 3.125 4.375 C2.465 4.375 1.805 4.375 1.125 4.375 C1.125 3.715 1.125 3.055 1.125 2.375 C-2.12483135 3.46284968 -2.12483135 3.46284968 -4.875 5.375 C-5.0073043 8.11646818 -5.06467904 10.81989976 -5.0625 13.5625 C-5.06314453 14.39370361 -5.06378906 15.22490723 -5.06445312 16.08129883 C-4.98180362 26.22746494 -3.95232957 36.29365931 -2.875 46.375 C-1.555 46.375 -0.235 46.375 1.125 46.375 C1.125 47.035 1.125 47.695 1.125 48.375 C-2.27231629 50.46565618 -4.91769405 50.79598999 -8.875 50.375 C-11.25744392 48.6743798 -11.81920981 47.61370595 -12.4909668 44.73950195 C-12.60093994 43.70784912 -12.71091309 42.67619629 -12.82421875 41.61328125 C-12.94990234 40.49501953 -13.07558594 39.37675781 -13.20507812 38.22460938 C-13.38200195 36.47374023 -13.38200195 36.47374023 -13.5625 34.6875 C-13.69205078 33.50865234 -13.82160156 32.32980469 -13.95507812 31.11523438 C-14.27341109 28.20307728 -14.57572902 25.2891777 -14.875 22.375 C-17.515 27.985 -20.155 33.595 -22.875 39.375 C-24.195 39.375 -25.515 39.375 -26.875 39.375 C-29.515 34.095 -32.155 28.815 -34.875 23.375 C-36.10843304 28.30873216 -36.29611869 33.09510906 -36.59375 38.16015625 C-36.875 41.375 -36.875 41.375 -37.875 44.375 C-39.9375 45.0625 -39.9375 45.0625 -41.875 45.375 C-41.730625 44.15425781 -41.58625 42.93351562 -41.4375 41.67578125 C-40.35407409 32.18663111 -39.56599481 22.93699405 -39.875 13.375 C-42.82918439 12.45536051 -43.58314686 12.25282892 -46.5625 13.5 C-49.09488288 15.19475241 -49.09488288 15.19475241 -49.6875 18.0625 C-49.749375 18.825625 -49.81125 19.58875 -49.875 20.375 C-47.895 20.045 -45.915 19.715 -43.875 19.375 C-43.25 21.75 -43.25 21.75 -42.875 24.375 C-43.535 25.035 -44.195 25.695 -44.875 26.375 C-48.4375 26.125 -48.4375 26.125 -51.875 25.375 C-53.44435594 22.23628812 -53.22701103 19.83644178 -52.875 16.375 C-49.46453383 11.99011492 -46.22040204 9.82675137 -40.734375 9.0859375 C-36.79045705 8.83781021 -34.55054559 8.93510985 -31.1875 11.125 C-22.875 22.80743243 -22.875 22.80743243 -22.875 28.375 C-22.215 28.375 -21.555 28.375 -20.875 28.375 C-20.63265625 27.37597656 -20.3903125 26.37695312 -20.140625 25.34765625 C-18.92198275 21.09844313 -16.92197824 17.56525541 -14.625 13.8125 C-14.25503906 13.17892578 -13.88507813 12.54535156 -13.50390625 11.89257812 C-6.71913728 0.65023909 -6.71913728 0.65023909 0 0 Z " transform="translate(206.875,34.625)" style="fill: #954EF5;"/><path d="M0 0 C3.20658632 -0.36646701 4.88513683 -0.05615533 7.8125 1.375 C10.70793658 4.8495239 10.64859699 7.23109815 10.43359375 11.6484375 C10 14 10 14 8.125 16.625 C6 18 6 18 4 18 C4.47050781 18.72445312 4.94101563 19.44890625 5.42578125 20.1953125 C11.60984183 29.79789104 11.60984183 29.79789104 14 35 C15.32 35 16.64 35 18 35 C18.495 35.495 18.495 35.495 19 36 C23.54950416 36.26247139 26.88439805 35.99544337 31 34 C29.625 36.4375 29.625 36.4375 27 39 C23.67414834 39.74023658 20.40085565 39.92860799 17 40 C19.14389017 43.27738304 19.14389017 43.27738304 22.6875 44.75 C23.450625 44.8325 24.21375 44.915 25 45 C24 47 24 47 21 48 C13.87016237 48.68998429 13.87016237 48.68998429 10.56640625 46.0703125 C7.16354866 42.38932419 5.05936744 37.93934777 2.8125 33.5 C2.37486328 32.65824219 1.93722656 31.81648438 1.48632812 30.94921875 C-0.53472614 27.03053338 -2.4791558 23.14621211 -4 19 C-3.360625 18.71125 -2.72125 18.4225 -2.0625 18.125 C0.15206079 17.17176549 0.15206079 17.17176549 1 15 C1.09657872 13.2104531 1.12980468 11.41714466 1.125 9.625 C1.12886719 8.19027344 1.12886719 8.19027344 1.1328125 6.7265625 C1.01551878 4.31859146 0.68675951 2.30009932 0 0 Z " transform="translate(137,45)" style="fill: #B24BF0;"/><path d="M0 0 C1.625 1.8125 1.625 1.8125 1.9921875 4.22265625 C1.625 6.8125 1.625 6.8125 -0.203125 8.578125 C-1.00234375 9.06796875 -1.8015625 9.5578125 -2.625 10.0625 C-3.80835938 10.81273438 -3.80835938 10.81273438 -5.015625 11.578125 C-7.17059481 12.70555953 -8.99937998 13.35481174 -11.375 13.8125 C-9.49797673 18.70812693 -9.49797673 18.70812693 -6.375 22.8125 C-2.97902937 23.02926408 -0.61721555 22.89323852 2.625 21.8125 C1.625 24.8125 1.625 24.8125 -1 26.5 C-4.85647338 27.99973965 -7.27076354 28.32552956 -11.375 27.8125 C-16.24487836 25.37756082 -18.59211438 22.96305847 -20.375 17.8125 C-21.09096863 11.36878233 -20.10405643 8.09532995 -16.375 2.8125 C-11.90472775 -1.37838023 -5.64765106 -2.82382553 0 0 Z " transform="translate(295.375,57.1875)" style="fill: #B346ED;"/><path d="M0 0 C2.5625 1.75 2.5625 1.75 4 4 C3.86328125 5.9453125 3.86328125 5.9453125 3 8 C1.0390625 9.6328125 1.0390625 9.6328125 -1.375 11.125 C-2.16648437 11.62257813 -2.95796875 12.12015625 -3.7734375 12.6328125 C-4.50820313 13.08398438 -5.24296875 13.53515625 -6 14 C-6.99 14.66 -7.98 15.32 -9 16 C-7.98072501 20.22782673 -7.98072501 20.22782673 -5.25 23.4375 C-1.59222003 24.35194499 1.65697833 23.67151084 5 22 C3.94633868 25.05561782 3.02789701 25.98224736 0.25 27.75 C-3.26282272 29.10108566 -5.28247975 29.54213837 -9 29 C-13.32062491 26.71261034 -16.23477309 24.60920361 -18 20 C-18.82743286 15.12733983 -19.12742048 10.89105995 -16.53515625 6.54296875 C-11.7794606 0.96281846 -7.51916716 -1.10220723 0 0 Z " transform="translate(345,56)" style="fill: #B647F0;"/><path d="M0 0 C2.75 0.4375 2.75 0.4375 5.5 3.1875 C10.07904155 9.80167113 9.34276885 17.66742182 8.75 25.4375 C7.40902635 30.38980862 6.05973511 33.56434326 1.75 36.4375 C-0.9375 36.0625 -0.9375 36.0625 -3.25 35.4375 C-3.2746519 30.61369198 -3.29283693 25.78992033 -3.30493164 20.96606445 C-3.30997174 19.32380536 -3.31680378 17.68155077 -3.32543945 16.03930664 C-3.33751926 13.68374521 -3.34323139 11.32824291 -3.34765625 8.97265625 C-3.35281754 8.23410904 -3.35797882 7.49556183 -3.36329651 6.7346344 C-3.3634925 4.96851912 -3.31194719 3.20252854 -3.25 1.4375 C-2.25 0.4375 -2.25 0.4375 0 0 Z " transform="translate(253.25,45.5625)" style="fill: #05030D;"/><path d="M0 0 C3.30681566 3.24291584 3.60275092 6.51815339 4.125 11 C4.77154859 16.55577299 4.77154859 16.55577299 6 22 C9.11673602 21.33236947 9.11673602 21.33236947 10.1796875 18.92578125 C11.19410477 15.30769297 11.21756036 11.90771435 11.125 8.1875 C11.11597656 7.49462891 11.10695313 6.80175781 11.09765625 6.08789062 C11.07426157 4.39177605 11.03839641 2.69584129 11 1 C12.9375 0.4375 12.9375 0.4375 15 0 C16.72320702 1.72320702 16.29481466 3.89378458 16.375 6.25 C16.3236298 13.39901936 14.42782232 19.73069338 11 26 C8.40182171 28.44985709 7.62403597 29 4 29 C0.22730267 27.74243422 -0.88388365 26.32532569 -3 23 C-5.41434935 17.87401202 -5.78387659 12.65533802 -6.4375 7.08203125 C-6.71541702 3.90547651 -6.71541702 3.90547651 -9 2 C-5.52957297 -0.31361802 -4.08165827 -0.51020728 0 0 Z " transform="translate(308,56)" style="fill: #B047F0;"/><path d="M0 0 C2.4375 1.5 2.4375 1.5 4 3 C3.67 4.65 3.34 6.3 3 8 C1.68 7.67 0.36 7.34 -1 7 C-1 6.34 -1 5.68 -1 5 C-0.34 5 0.32 5 1 5 C1 4.34 1 3.68 1 3 C-0.65 3.33 -2.3 3.66 -4 4 C-3.43009348 7.59357719 -2.13617523 9.17249271 0.5 11.625 C4.55609469 15.43174461 5.11537196 17.33619989 5.328125 23.02734375 C4.89515005 25.63034791 4.10203863 26.43634543 2 28 C-1.62256185 29.15231967 -5.37156514 29.70830297 -8.921875 28.1640625 C-10.5625 27.0625 -10.5625 27.0625 -13 25 C-12.67 24.34 -12.34 23.68 -12 23 C-11.34 23.33 -10.68 23.66 -10 24 C-8.00039988 24.039992 -5.99952758 24.04346799 -4 24 C-4.23298303 20.15577999 -5.42575518 18.37259747 -8 15.6875 C-11.49397427 11.81282635 -12.25724425 9.23063311 -12 4 C-8.56944599 -0.28819252 -5.29788193 -0.67427588 0 0 Z " transform="translate(376,56)" style="fill: #B347F0;"/><path d="M0 0 C7.28850325 -0.48590022 7.28850325 -0.48590022 10.5625 1.75 C12 4 12 4 11.859375 5.9375 C10.69992544 8.72017895 9.19977471 9.62174994 6.6875 11.25 C5.90761719 11.77078125 5.12773437 12.2915625 4.32421875 12.828125 C2 14 2 14 -2 14 C-1.03644647 4.58997722 -1.03644647 4.58997722 0 0 Z " transform="translate(337,56)" style="fill: #8C44E6;"/><path d="M0 0 C3.32908639 0.54352431 4.81348447 0.99148268 7.0625 3.5 C7.4296875 5.90234375 7.4296875 5.90234375 7.0625 8.5 C5.234375 10.3359375 5.234375 10.3359375 2.8125 11.875 C2.02359375 12.39835937 1.2346875 12.92171875 0.421875 13.4609375 C-1.9375 14.5 -1.9375 14.5 -4.234375 14.1640625 C-4.79640625 13.94492188 -5.3584375 13.72578125 -5.9375 13.5 C-6.14903631 9.33978592 -6.27875965 6.41002574 -4.8125 2.5 C-2.9375 0.5 -2.9375 0.5 0 0 Z " transform="translate(289.9375,55.5)" style="fill: #8D45E8;"/><path d="M0 0 C2.5 0.3125 2.5 0.3125 5 1 C6.97469091 4.94938182 6.58151274 9.70670385 6 14 C4.558779 16.3684401 3.28457894 17.34368027 1 19 C1.66 20.98 2.32 22.96 3 25 C2.34 24.67 1.68 24.34 1 24 C0.67 26.31 0.34 28.62 0 31 C-0.33 31 -0.66 31 -1 31 C-1.02465622 26.74585377 -1.04283899 22.49174502 -1.05493164 18.23754883 C-1.05997101 16.78929927 -1.06680253 15.34105483 -1.07543945 13.89282227 C-1.08752247 11.81525412 -1.09323211 9.73775303 -1.09765625 7.66015625 C-1.10289307 6.40855713 -1.10812988 5.15695801 -1.11352539 3.86743164 C-1 1 -1 1 0 0 Z " transform="translate(133,46)" style="fill: #030008;"/><path d="M0 0 C4.62 0 9.24 0 14 0 C14 2.31 14 4.62 14 7 C9.38 7 4.76 7 0 7 C0 4.69 0 2.38 0 0 Z " transform="translate(211,67)" style="fill: #AA44EB;"/><path d="M0 0 C0 9.57 0 19.14 0 29 C-0.33 29 -0.66 29 -1 29 C-1.04898438 27.85660156 -1.09796875 26.71320313 -1.1484375 25.53515625 C-1.22345189 24.04424527 -1.29900028 22.55336108 -1.375 21.0625 C-1.4059375 20.30775391 -1.436875 19.55300781 -1.46875 18.77539062 C-1.5726315 16.84492605 -1.77895614 14.92057919 -2 13 C-2.66 12.67 -3.32 12.34 -4 12 C-4 10.68 -4 9.36 -4 8 C-5.98 8 -7.96 8 -10 8 C-9.75 5.125 -9.75 5.125 -9 2 C-5.89429009 -0.44020064 -4.17414371 0 0 0 Z " transform="translate(241,47)" style="fill: #120B29;"/><path d="M0 0 C-1.3125 1.5 -1.3125 1.5 -3 3 C-3.99 3 -4.98 3 -6 3 C-6.33 4.98 -6.66 6.96 -7 9 C-5.02 8.67 -3.04 8.34 -1 8 C-0.375 10.375 -0.375 10.375 0 13 C-2 15 -2 15 -5 15.3125 C-5.99 15.209375 -6.98 15.10625 -8 15 C-10.50031654 11.24952518 -10.53603554 9.44143734 -10 5 C-4.60227273 -1.53409091 -4.60227273 -1.53409091 0 0 Z " transform="translate(238,46)" style="fill: #814DEB;"/><path d="M0 0 C-0.63808594 0.30292969 -1.27617187 0.60585938 -1.93359375 0.91796875 C-2.75988281 1.33691406 -3.58617187 1.75585938 -4.4375 2.1875 C-5.26121094 2.59355469 -6.08492187 2.99960937 -6.93359375 3.41796875 C-9.24690712 4.86633187 -9.24690712 4.86633187 -9.78515625 7.67578125 C-9.85605469 8.44277344 -9.92695313 9.20976563 -10 10 C-8.02 9.67 -6.04 9.34 -4 9 C-3.375 11.375 -3.375 11.375 -3 14 C-3.66 14.66 -4.32 15.32 -5 16 C-8.5625 15.75 -8.5625 15.75 -12 15 C-13.56935594 11.86128812 -13.35201103 9.46144178 -13 6 C-9.5258323 1.53321295 -5.72551734 -1.90850578 0 0 Z " transform="translate(167,45)" style="fill: #834DF0;"/><path d="M0 0 C-0.75796875 0.48919922 -0.75796875 0.48919922 -1.53125 0.98828125 C-2.1809375 1.42527344 -2.830625 1.86226562 -3.5 2.3125 C-4.1496875 2.74175781 -4.799375 3.17101563 -5.46875 3.61328125 C-5.9740625 4.07089844 -6.479375 4.52851562 -7 5 C-7 5.99 -7 6.98 -7 8 C-5.02 8 -3.04 8 -1 8 C-0.875 10.375 -0.875 10.375 -1 13 C-3 15 -3 15 -5.4375 15.375 C-8 15 -8 15 -9.875 13.4375 C-11.52066017 9.87190297 -11.06716959 7.73509355 -10 4 C-4.39215686 -1.46405229 -4.39215686 -1.46405229 0 0 Z " transform="translate(120,46)" style="fill: #7F4CEB;"/><path d="M0 0 C2.0625 0.4375 2.0625 0.4375 4 1 C4.3690205 13.66970387 4.3690205 13.66970387 2 19 C1.01 18.67 0.02 18.34 -1 18 C-1.02684312 15.18743719 -1.04676188 12.37512759 -1.0625 9.5625 C-1.07087891 8.76005859 -1.07925781 7.95761719 -1.08789062 7.13085938 C-1.0965143 5.08704779 -1.0522815 3.04316098 -1 1 C-0.67 0.67 -0.34 0.34 0 0 Z " transform="translate(320,56)" style="fill: #8D44E5;"/><path d="M0 0 C1.65 0 3.3 0 5 0 C5 4.29 5 8.58 5 13 C3.68 13.33 2.36 13.66 1 14 C0 13 0 13 -0.09765625 10.05859375 C-0.08605469 8.86363281 -0.07445312 7.66867188 -0.0625 6.4375 C-0.05347656 5.23996094 -0.04445313 4.04242188 -0.03515625 2.80859375 C-0.02355469 1.88175781 -0.01195312 0.95492187 0 0 Z " transform="translate(354,44)" style="fill: #6B56EC;"/><path d="M0 0 C1.67542976 0.28604898 3.34385343 0.61781233 5 1 C5 1.66 5 2.32 5 3 C4.01 3 3.02 3 2 3 C1.34 7.62 0.68 12.24 0 17 C0.99 17.33 1.98 17.66 3 18 C2.34 18.33 1.68 18.66 1 19 C1.66 20.98 2.32 22.96 3 25 C2.34 24.67 1.68 24.34 1 24 C0.67 26.31 0.34 28.62 0 31 C-0.33 31 -0.66 31 -1 31 C-1.02465622 26.74585377 -1.04283899 22.49174502 -1.05493164 18.23754883 C-1.05997101 16.78929927 -1.06680253 15.34105483 -1.07543945 13.89282227 C-1.08752247 11.81525412 -1.09323211 9.73775303 -1.09765625 7.66015625 C-1.10289307 6.40855713 -1.10812988 5.15695801 -1.11352539 3.86743164 C-1 1 -1 1 0 0 Z " transform="translate(133,46)" style="fill: #130B2C;"/><path d="M0 0 C5.28 0 10.56 0 16 0 C15.67 0.66 15.34 1.32 15 2 C10.71 2 6.42 2 2 2 C2 6.62 2 11.24 2 16 C-2.35532149 18.17766075 -3.46625958 18.03039555 -8 17 C-8 16.67 -8 16.34 -8 16 C-5.36 16 -2.72 16 0 16 C0 10.72 0 5.44 0 0 Z " transform="translate(49,86)" style="fill: #1E0F33;"/><path d="M0 0 C9.9 0 19.8 0 30 0 C30 1.65 30 3.3 30 5 C29.67 3.68 29.34 2.36 29 1 C18.11 1.495 18.11 1.495 7 2 C6.67 3.65 6.34 5.3 6 7 C1.125 2.25 1.125 2.25 0 0 Z " transform="translate(37,42)" style="fill: #0E0925;"/><path d="M0 0 C1.32 0.66 2.64 1.32 4 2 C4 3.65 4 5.3 4 7 C1.69 8.32 -0.62 9.64 -3 11 C-2.88590407 9.54077307 -2.75834456 8.08259402 -2.625 6.625 C-2.55539062 5.81289062 -2.48578125 5.00078125 -2.4140625 4.1640625 C-2 2 -2 2 0 0 Z " transform="translate(338,59)" style="fill: #08030F;"/><path d="M0 0 C2.125 0.375 2.125 0.375 4 1 C4.25 3.8125 4.25 3.8125 4 7 C1.95959224 9.04040776 0.91674756 10 -2 10 C-2.1953125 3.9453125 -2.1953125 3.9453125 -2 2 C-1.34 1.34 -0.68 0.68 0 0 Z " transform="translate(286,59)" style="fill: #1B0A36;"/><path d="M0 0 C0.99 0.33 1.98 0.66 3 1 C3 4.3 3 7.6 3 11 C2.67 9.68 2.34 8.36 2 7 C0.02 7.33 -1.96 7.66 -4 8 C-4.33 6.68 -4.66 5.36 -5 4 C-2.6875 1.9375 -2.6875 1.9375 0 0 Z " transform="translate(117,47)" style="fill: #150B30;"/><path d="M0 0 C6.4 -0.36923077 6.4 -0.36923077 9.4375 1.5 C9.953125 1.995 10.46875 2.49 11 3 C10.67 4.65 10.34 6.3 10 8 C8.68 7.67 7.36 7.34 6 7 C6 6.34 6 5.68 6 5 C6.66 5 7.32 5 8 5 C8 4.34 8 3.68 8 3 C6.35 3 4.7 3 3 3 C3 2.34 3 1.68 3 1 C2.01 0.67 1.02 0.34 0 0 Z " transform="translate(369,56)" style="fill: #8F46EC;"/><path d="M0 0 C0.33 1.98 0.66 3.96 1 6 C0.01 6.33 -0.98 6.66 -2 7 C-2 5.68 -2 4.36 -2 3 C-4.64 3.33 -7.28 3.66 -10 4 C-10 3.34 -10 2.68 -10 2 C-3.375 0 -3.375 0 0 0 Z " transform="translate(212,32)" style="fill: #131740;"/><path d="M0 0 C-0.62648437 0.31453125 -1.25296875 0.6290625 -1.8984375 0.953125 C-2.71570313 1.38109375 -3.53296875 1.8090625 -4.375 2.25 C-5.59316406 2.87648437 -5.59316406 2.87648437 -6.8359375 3.515625 C-9.20801205 5.14267975 -9.97094804 6.35386639 -11 9 C-11.66 8.67 -12.32 8.34 -13 8 C-11.73317448 4.09395463 -10.56716435 2.09833197 -7 0 C-3.94862074 -1.10959246 -3.20219758 -1.06739919 0 0 Z " transform="translate(167,45)" style="fill: #6057E5;"/><path d="M0 0 C-1.3125 1.5 -1.3125 1.5 -3 3 C-3.99 3 -4.98 3 -6 3 C-6.33 4.65 -6.66 6.3 -7 8 C-7.99 7.67 -8.98 7.34 -10 7 C-9.02640613 3.72518425 -8.30933359 2.23794891 -5.5625 0.125 C-3 -1 -3 -1 0 0 Z " transform="translate(238,46)" style="fill: #6155D8;"/><path d="M0 0 C1.093125 0.0825 2.18625 0.165 3.3125 0.25 C3.3125 1.57 3.3125 2.89 3.3125 4.25 C2.6525 4.25 1.9925 4.25 1.3125 4.25 C1.3125 3.59 1.3125 2.93 1.3125 2.25 C0.1678125 2.745 0.1678125 2.745 -1 3.25 C-3.6875 4.25 -3.6875 4.25 -6.6875 4.25 C-4.79150483 0.68106792 -4.16790733 0.28256999 0 0 Z " transform="translate(206.6875,34.75)" style="fill: #3F6CEF;"/><path d="M0 0 C1.65 0 3.3 0 5 0 C5 0.66 5 1.32 5 2 C4.34 2 3.68 2 3 2 C3.33 2.99 3.66 3.98 4 5 C3.34 5.66 2.68 6.32 2 7 C0.4375 5.75 0.4375 5.75 -1 4 C-0.6875 1.8125 -0.6875 1.8125 0 0 Z " transform="translate(372,59)" style="fill: #0F0722;"/><path d="M0 0 C0.33 0 0.66 0 1 0 C1 2.64 1 5.28 1 8 C1.66 8 2.32 8 3 8 C2.67 9.65 2.34 11.3 2 13 C1.01 12.67 0.02 12.34 -1 12 C-0.67 8.04 -0.34 4.08 0 0 Z " transform="translate(320,62)" style="fill: #943CCE;"/><path d="M0 0 C0.66 0.33 1.32 0.66 2 1 C1.34 1.66 0.68 2.32 0 3 C-0.64767793 5.57061311 -0.64767793 5.57061311 -1 8 C-0.34 8.33 0.32 8.66 1 9 C-0.98 9.99 -0.98 9.99 -3 11 C-2.88590407 9.54077307 -2.75834456 8.08259402 -2.625 6.625 C-2.55539062 5.81289062 -2.48578125 5.00078125 -2.4140625 4.1640625 C-2 2 -2 2 0 0 Z " transform="translate(338,59)" style="fill: #1D0D3A;"/><path d="M0 0 C0.99 0.33 1.98 0.66 3 1 C0.03 2.98 -2.94 4.96 -6 7 C-6 6.01 -6 5.02 -6 4 C-3.1875 1.75 -3.1875 1.75 0 0 Z " transform="translate(117,45)" style="fill: #5E55E0;"/><path d="M0 0 C1.32 0.33 2.64 0.66 4 1 C1.375 5.875 1.375 5.875 -2 7 C-1.34 4.69 -0.68 2.38 0 0 Z " transform="translate(188,56)" style="fill: #8748EB;"/><path d="M0 0 C-0.33 1.98 -0.66 3.96 -1 6 C-1.99 6 -2.98 6 -4 6 C-2.92307692 0 -2.92307692 0 0 0 Z " transform="translate(289,61)" style="fill: #010002;"/><path d="M0 0 C3.375 -0.125 3.375 -0.125 7 0 C7.66 0.66 8.32 1.32 9 2 C8 3 8 3 5.4375 3.0625 C4.2309375 3.0315625 4.2309375 3.0315625 3 3 C3 2.34 3 1.68 3 1 C2.01 0.67 1.02 0.34 0 0 Z " transform="translate(369,56)" style="fill: #683CBF;"/></svg>